<svg width="34" height="35" viewBox="0 0 34 35" fill="none" xmlns="http://www.w3.org/2000/svg">
<mask id="path-1-outside-1_1_132" maskUnits="userSpaceOnUse" x="0.697411" y="4.43628" width="30" height="30" fill="black">
<rect fill="white" x="0.697411" y="4.43628" width="30" height="30"/>
<path d="M26.9601 24.3091L22.1753 21.9167C21.9507 21.8046 21.6965 21.766 21.4488 21.8064C21.201 21.8468 20.9723 21.964 20.7949 22.1416L18.7912 24.1453C15.9119 23.6823 11.3747 19.1463 10.913 16.267L12.9166 14.2634C13.0942 14.086 13.2115 13.8572 13.2518 13.6094C13.2922 13.3617 13.2536 13.1075 13.1415 12.8829L10.7491 8.09809C10.6708 7.94125 10.5589 7.80354 10.4215 7.69471C10.2841 7.58587 10.1244 7.50858 9.95377 7.46829C9.78315 7.42801 9.60576 7.42571 9.43416 7.46158C9.26256 7.49744 9.10094 7.57058 8.96074 7.67583L4.1759 11.2645C4.02733 11.3759 3.90675 11.5204 3.8237 11.6865C3.74065 11.8526 3.69741 12.0357 3.69741 12.2214C3.69741 23.6692 11.3891 31.3608 22.8368 31.3608C23.0225 31.3608 23.2057 31.3176 23.3718 31.2345C23.5379 31.1515 23.6823 31.0309 23.7938 30.8823L27.3824 26.0975C27.4876 25.9573 27.5608 25.7957 27.5967 25.6241C27.6325 25.4525 27.6302 25.2751 27.5899 25.1045C27.5496 24.9338 27.4724 24.7742 27.3635 24.6367C27.2547 24.4993 27.117 24.3875 26.9601 24.3091Z"/>
</mask>
<path d="M26.9601 24.3091L25.6185 26.9924L25.6199 26.9931L26.9601 24.3091ZM22.1753 21.9167L23.5169 19.2334L23.5149 19.2324L22.1753 21.9167ZM20.7949 22.1416L22.9162 24.2629L22.9172 24.2619L20.7949 22.1416ZM18.7912 24.1453L18.315 27.1072L19.8285 27.3506L20.9125 26.2666L18.7912 24.1453ZM10.913 16.267L8.79164 14.1457L7.70819 15.2291L7.95081 16.742L10.913 16.267ZM12.9166 14.2634L10.7963 12.141L10.7953 12.142L12.9166 14.2634ZM13.1415 12.8829L15.8258 11.5433L15.8248 11.5413L13.1415 12.8829ZM10.7491 8.09809L8.06509 9.43833L8.0658 9.43973L10.7491 8.09809ZM8.96074 7.67583L10.7607 10.0758L10.7618 10.0751L8.96074 7.67583ZM4.1759 11.2645L2.3759 8.86446L4.1759 11.2645ZM3.69741 12.2214H0.697411H3.69741ZM23.7938 30.8823L21.3938 29.0823L23.7938 30.8823ZM27.3824 26.0975L24.9832 24.2965L24.9824 24.2975L27.3824 26.0975ZM28.3018 21.6259L23.5169 19.2334L20.8337 24.6L25.6185 26.9924L28.3018 21.6259ZM23.5149 19.2324C22.7271 18.8392 21.8355 18.7039 20.9664 18.8454L21.9312 24.7674C21.5576 24.8282 21.1743 24.77 20.8357 24.601L23.5149 19.2324ZM20.9664 18.8454C20.0973 18.987 19.2948 19.3984 18.6725 20.0213L22.9172 24.2619C22.6497 24.5297 22.3047 24.7065 21.9312 24.7674L20.9664 18.8454ZM18.6735 20.0203L16.6699 22.0239L20.9125 26.2666L22.9162 24.2629L18.6735 20.0203ZM19.2674 21.1833C19.117 21.1591 18.692 21.0218 18.0262 20.5962C17.3988 20.1951 16.7142 19.6383 16.0667 18.9909C15.4192 18.3434 14.8624 17.659 14.4615 17.0318C14.0361 16.3663 13.8991 15.9417 13.8751 15.792L7.95081 16.742C8.15766 18.0319 8.761 19.2541 9.40614 20.2634C10.0758 21.311 10.9199 22.3294 11.8243 23.2337C12.7287 24.1381 13.7472 24.982 14.7947 25.6516C15.8039 26.2967 17.0257 26.8999 18.315 27.1072L19.2674 21.1833ZM13.0343 18.3883L15.0379 16.3847L10.7953 12.142L8.79164 14.1457L13.0343 18.3883ZM15.0369 16.3857C15.6598 15.7634 16.0712 14.9609 16.2128 14.0918L10.2909 13.1271C10.3517 12.7535 10.5286 12.4085 10.7963 12.141L15.0369 16.3857ZM16.2128 14.0918C16.3544 13.2227 16.219 12.3312 15.8258 11.5433L10.4572 14.2226C10.2882 13.8839 10.23 13.5006 10.2909 13.1271L16.2128 14.0918ZM15.8248 11.5413L13.4324 6.75645L8.0658 9.43973L10.4582 14.2246L15.8248 11.5413ZM13.4331 6.75785C13.1583 6.20767 12.766 5.72459 12.2839 5.34282L8.55907 10.0466C8.35183 9.88248 8.18319 9.67483 8.0651 9.43833L13.4331 6.75785ZM12.2839 5.34282C11.8018 4.96104 11.2417 4.6899 10.6432 4.54858L9.26436 10.388C9.00709 10.3273 8.76631 10.2107 8.55907 10.0466L12.2839 5.34282ZM10.6432 4.54858C10.0447 4.40726 9.42241 4.39922 8.82045 4.52502L10.0479 10.3981C9.78912 10.4522 9.52164 10.4488 9.26436 10.388L10.6432 4.54858ZM8.82045 4.52502C8.21849 4.65083 7.65154 4.9074 7.15973 5.27659L10.7618 10.0751C10.5503 10.2338 10.3066 10.3441 10.0479 10.3981L8.82045 4.52502ZM7.16074 5.27583L2.3759 8.86446L5.9759 13.6645L10.7607 10.0758L7.16074 5.27583ZM2.3759 8.86446C1.85474 9.25533 1.43175 9.76216 1.14042 10.3448L6.50698 13.0281C6.38175 13.2786 6.19992 13.4964 5.9759 13.6645L2.3759 8.86446ZM1.14042 10.3448C0.849082 10.9275 0.697411 11.57 0.697411 12.2214H6.69741C6.69741 12.5015 6.63221 12.7776 6.50698 13.0281L1.14042 10.3448ZM0.697411 12.2214C0.697411 18.633 2.86437 24.2168 6.85288 28.2053C10.8414 32.1939 16.4253 34.3608 22.8368 34.3608V28.3608C17.8006 28.3608 13.8148 26.682 11.0955 23.9627C8.37627 21.2435 6.69741 17.2576 6.69741 12.2214H0.697411ZM22.8368 34.3608C23.4882 34.3608 24.1307 34.2091 24.7134 33.9178L22.0301 28.5512C22.2806 28.426 22.5568 28.3608 22.8368 28.3608V34.3608ZM24.7134 33.9178C25.2961 33.6265 25.8029 33.2035 26.1938 32.6823L21.3938 29.0823C21.5618 28.8583 21.7797 28.6765 22.0301 28.5512L24.7134 33.9178ZM26.1938 32.6823L29.7824 27.8975L24.9824 24.2975L21.3938 29.0823L26.1938 32.6823ZM29.7816 27.8985C30.1508 27.4067 30.4074 26.8398 30.5332 26.2378L24.6601 25.0104C24.7142 24.7516 24.8245 24.5079 24.9832 24.2965L29.7816 27.8985ZM30.5332 26.2378C30.659 25.6358 30.651 25.0135 30.5096 24.4151L24.6702 25.7939C24.6095 25.5366 24.606 25.2691 24.6601 25.0104L30.5332 26.2378ZM30.5096 24.4151C30.3683 23.8166 30.0972 23.2564 29.7154 22.7743L25.0116 26.4992C24.8475 26.2919 24.731 26.0511 24.6702 25.7939L30.5096 24.4151ZM29.7154 22.7743C29.3336 22.2922 28.8506 21.8999 28.3004 21.6252L25.6199 26.9931C25.3834 26.875 25.1757 26.7064 25.0116 26.4992L29.7154 22.7743Z" fill="#DD2020" mask="url(#path-1-outside-1_1_132)"/>
<path d="M20.2656 1.88281C23.0624 2.27054 31.7549 1.88281 31.7549 13.7606" stroke="#DD2020" stroke-width="3"/>
<path d="M19.0642 7.82153C20.7551 8.05595 26.0105 7.82153 26.0105 15.0027" stroke="#DD2020" stroke-width="3"/>
</svg>
