<svg width="50" height="50" viewBox="0 0 50 50" fill="none" xmlns="http://www.w3.org/2000/svg">
<circle cx="24.9766" cy="25.1173" r="24.4991" fill="#4CC85B"/>
<path d="M20.6367 33.4726C22.1186 34.319 23.829 34.7993 25.6518 34.7993C31.2499 34.7993 35.7993 30.2468 35.7993 24.6497C35.7993 19.0525 31.2499 14.5 25.6518 14.5H25.6475C20.0495 14.5 15.5 19.0513 15.5 24.6497C15.5 26.61 16.0589 28.447 17.0287 30.0017L16.4732 32.2074L15.8695 34.6039L18.2741 34.0332L20.6367 33.4726Z" fill="#4CC85B" stroke="white" stroke-width="3"/>
<path d="M29.9589 28.8861L29.8856 28.9594C29.5197 29.3283 29.0294 29.5473 28.5105 29.5736H28.1485C26.2326 29.5736 24.6925 28.8585 23.0655 27.236C21.3374 25.508 20.6408 23.8809 20.7371 21.7908H20.737C20.7633 21.272 20.9823 20.7816 21.3512 20.4158L21.4245 20.3424C21.8885 19.8765 22.5444 19.6555 23.1957 19.7456C23.847 19.8357 24.4183 20.2264 24.7385 20.8007L24.8393 20.9841H24.8392C24.9665 21.216 25.0153 21.483 24.9781 21.745C24.9409 22.0069 24.8198 22.2498 24.633 22.4371L24.0188 23.0513C24.3734 23.7338 24.8379 24.3532 25.3939 24.8847C25.9254 25.4406 26.5447 25.9051 27.2273 26.2597L27.8368 25.6547C28.0285 25.4663 28.277 25.3463 28.5438 25.3131C28.8105 25.28 29.0807 25.3356 29.3127 25.4713L29.4961 25.5722C30.0704 25.8923 30.4612 26.4635 30.5512 27.1149C30.6413 27.7662 30.4203 28.422 29.9544 28.886L29.9589 28.8861Z" fill="white"/>
</svg>
